<svg xmlns="http://www.w3.org/2000/svg" viewBox="-0.5 -6.5 52 52" fill="#ED1C24"><path d="M48.301 12.156C44.794 4.773 38.774 0 32.961 0c-1.767 0-3.417.45-4.91 1.33-.157.01-.247.063-.315.09a5.59 5.59 0 0 1-2.262.454c-1.11 0-1.991-.278-2.171-.372A10.864 10.864 0 0 0 18.236.267C12.186.267 6.237 4.852 2.73 12.23c-4.685 9.885-3.192 21.2 3.345 25.233 1.56.973 3.327 1.468 5.206 1.468 2.445 0 5.022-.863 7.468-2.505.926-.627 3.416-2.091 6.424-2.091a9.02 9.02 0 0 1 3.849.86C31.963 37.629 36.693 39 39.84 39a9.6 9.6 0 0 0 5.112-1.446c3.236-1.994 5.34-5.768 5.93-10.635.588-4.75-.338-9.997-2.581-14.763ZM17.639 34.794c-2.104 1.42-4.298 2.174-6.357 2.174a7.817 7.817 0 0 1-4.186-1.179c-5.7-3.523-6.856-13.71-2.58-22.716C7.64 6.493 13.026 2.23 18.228 2.23c1.47 0 2.873.341 4.163 1.014.27.139.792.326 1.493.447v.07c-.247.129-7.921.992-10.138 10.392-1.834 7.676 3.35 14.552 8.938 18.484-2.374.507-4.208 1.611-5.045 2.156Zm22.178-8.412c-1.178 4.42-5.16 7.849-7.783 7.849-.453 0-.858-.102-1.2-.3.904-1.984 1.947-6.993-5.656-13.332-7.014-5.885-1.538-16.318-1.29-16.817l.045.44c.521 4.825 1.947 6.864 10.952 12.039 4.253 2.441 6.02 6.035 4.932 10.12Z"/></svg>
