<svg xmlns="http://www.w3.org/2000/svg" width="137" height="39" fill="none"><g fill="#ED1C24" clip-path="url(#a)"><path d="M124.376 23.813v-.203c-.747-.698-1.291-1.45-1.651-2.25-.386-.81-.566-1.72-.566-2.722 0-1.848.634-3.384 1.901-4.63 1.246-1.24 2.806-1.863 4.708-1.863.858 0 1.672.12 2.374.353a6.916 6.916 0 0 1 2.059 1.067c.589-.567 1.178-.98 1.789-1.255.589-.274 1.245-.402 1.946-.402v2.05h-.431c-.499 0-.926.057-1.29.17a3.297 3.297 0 0 0-1.043.51c.409.583.679 1.198.882 1.83a7.17 7.17 0 0 1 .292 1.994c0 1.997-.611 3.616-1.789 4.855-1.2 1.236-2.715 1.848-4.617 1.848a7.47 7.47 0 0 1-1.335-.12 9.217 9.217 0 0 1-1.448-.383c-.656.169-1.178.405-1.538.683-.363.286-.544.605-.544.965 0 .83 1.516 1.33 4.55 1.488.926.048 1.673.097 2.239.135 1.992.139 3.507.608 4.572 1.408 1.043.804 1.56 1.904 1.56 3.294 0 1.697-.678 2.989-2.059 3.883-1.38.886-3.371 1.329-5.997 1.329-2.397 0-4.276-.41-5.611-1.22-1.335-.82-2.014-1.942-2.014-3.38 0-.763.203-1.442.656-2.043.432-.59 1.111-1.146 2.059-1.687v-.364c-.611-.184-1.11-.48-1.425-.875-.364-.413-.521-.893-.521-1.457 0-.53.18-1.048.544-1.525.386-.488.949-.983 1.744-1.494m-.154-5.164c0 1.348.431 2.501 1.313 3.448.904.946 1.969 1.415 3.237 1.415 1.267 0 2.396-.458 3.259-1.374.836-.916 1.268-2.08 1.268-3.489 0-1.408-.432-2.561-1.268-3.459-.859-.9-1.947-1.352-3.259-1.352-1.246 0-2.33.459-3.215 1.397-.881.94-1.335 2.077-1.335 3.414Zm2.262 11.056c-1.066.466-1.834.984-2.375 1.551-.521.57-.768 1.19-.768 1.859 0 .969.498 1.712 1.515 2.264 1.016.549 2.423.82 4.208.82 1.879 0 3.327-.301 4.366-.902 1.043-.601 1.56-1.439 1.56-2.509 0-1.07-.611-1.915-1.856-2.385-1.246-.461-3.462-.702-6.654-.702l.004.004Zm-20.389 1.386V12.543h2.194v2.914c1.088-1.074 2.149-1.885 3.215-2.426 1.087-.537 2.126-.815 3.191-.815 1.651 0 2.896.496 3.71 1.488.836.995 1.245 2.49 1.245 4.483V31.08h-2.194V18.965c0-1.84-.248-3.11-.769-3.793-.499-.691-1.403-1.03-2.671-1.03-.926 0-1.856.286-2.828.865-.948.574-1.924 1.438-2.895 2.58v13.497h-2.194l-.004-.004Zm-4.321-4.702v-5.712c-3.596.796-5.997 1.604-7.22 2.415-1.2.807-1.811 1.911-1.811 3.297 0 1.025.27 1.825.814 2.411.544.582 1.29.875 2.239.875.949 0 1.924-.26 2.873-.785.949-.526 1.991-1.36 3.102-2.501h.003Zm.387 4.702c-.113-.53-.225-.984-.27-1.363-.045-.383-.09-.736-.113-1.075-1.016.947-2.037 1.653-3.053 2.104a7.8 7.8 0 0 1-3.192.68c-1.492 0-2.693-.459-3.597-1.379-.904-.913-1.38-2.107-1.38-3.568 0-2.012.86-3.593 2.536-4.746 1.672-1.157 4.594-2.104 8.735-2.85v-1.796c0-.927-.364-1.667-1.088-2.22-.746-.551-1.718-.833-2.963-.833-.971 0-1.856.252-2.603.743-.746.485-1.403 1.229-1.969 2.235l-1.695-.988c.769-1.33 1.65-2.29 2.715-2.899 1.043-.604 2.33-.909 3.849-.909 1.743 0 3.146.462 4.275 1.375 1.11.916 1.673 2.08 1.673 3.496v11.518c0 .225.023.56.09.991.045.421.113.92.225 1.484h-2.175Zm-20.411-5.772v-10.29h-2.037V12.04h2.037V6.936h3.825v5.104h2.513v2.978h-2.513V25.51c0 1.138.113 1.886.315 2.231.203.33.59.503 1.133.503.203 0 .521-.015.949-.056.067-.004.135-.015.18-.015v2.87a5.838 5.838 0 0 1-.949.236 6.33 6.33 0 0 1-.994.079c-1.583 0-2.963-.417-3.574-1.25-.59-.827-.882-2.434-.882-4.804l-.003.004Zm-6.789 5.772V12.04h3.78v19.04h-3.78Zm0-22.056V5.445h3.78v3.58h-3.78ZM58.03 37.817V12.543h1.628l.566 2.404h.158c.881-.92 1.789-1.612 2.693-2.073a6.347 6.347 0 0 1 2.873-.692c2.082 0 3.732.86 4.977 2.595 1.245 1.728 1.857 4.071 1.857 7.012 0 2.94-.612 5.287-1.857 7.015-1.245 1.728-2.895 2.588-4.977 2.588-.994 0-1.97-.222-2.896-.677-.904-.454-1.789-1.134-2.67-2.042h-.158v9.137H58.03v.007Zm2.194-20.305v8.607c.95 1.232 1.88 2.13 2.76 2.681.882.556 1.812.83 2.784.83 1.538 0 2.738-.676 3.574-2.024.837-1.348 1.268-3.279 1.268-5.776s-.431-4.42-1.268-5.768c-.836-1.352-2.036-2.032-3.574-2.032-.994 0-1.924.278-2.806.823-.859.548-1.789 1.434-2.738 2.659Zm57.61 20.264V34.23h-1.267v-.489h3.075v.489h-1.268v3.545h-.543.003Zm-2.306 0v-4.034h.544v4.034h-.544Zm-2.693-.943h.499c-.068.316-.203.57-.432.759-.225.187-.521.281-.859.281-.408 0-.723-.139-.949-.409-.247-.274-.363-.65-.363-1.115 0-.504.112-.89.337-1.176.248-.282.567-.42.972-.42.431 0 .746.127.971.386.225.256.341.627.341 1.097v.214h-2.104c0 .308.068.556.225.721.135.17.338.255.612.255a.776.776 0 0 0 .498-.157c.136-.102.203-.252.248-.432l.004-.004Zm-1.583-.789h1.605c0-.274-.067-.484-.225-.634-.135-.154-.315-.225-.566-.225a.793.793 0 0 0-.589.221c-.112.147-.202.36-.225.638Zm-1.628 1.732v-4.034h.499v4.034h-.499Zm-1.268 0v-2.933h.499v2.933h-.499Zm0-3.47v-.56h.499v.56h-.499Zm-1.222 3.113a1.054 1.054 0 0 1-.409.342 1.128 1.128 0 0 1-.521.112 1.2 1.2 0 0 1-.949-.431c-.225-.286-.364-.669-.364-1.142 0-.473.135-.841.364-1.123.247-.285.566-.428.949-.428.202 0 .386.037.521.112.157.072.27.192.409.35v-.364h.476v2.872c0 .447-.09.778-.315.98-.225.2-.566.301-1.043.301-.386 0-.678-.071-.904-.225-.225-.154-.315-.365-.315-.635v-.019h.477v.015c0 .15.067.267.18.338.135.08.315.117.589.117.315 0 .521-.06.656-.18.135-.117.203-.312.203-.587v-.401l-.004-.004Zm-.859-2.223c-.27 0-.476.09-.634.289-.157.191-.225.47-.225.83s.068.623.225.819c.158.195.364.3.634.3.315 0 .521-.09.656-.274.158-.18.225-.455.225-.826 0-.372-.067-.661-.225-.853-.135-.191-.364-.285-.656-.285Zm-5.184 2.58 1.493-4.034h.589l1.515 4.034h-.588l-.432-1.202h-1.583l-.431 1.202h-.566.003Zm1.156-1.675h1.267l-.633-1.776-.634 1.776ZM48.301 12.156C44.794 4.773 38.774 0 32.961 0c-1.767 0-3.417.45-4.91 1.33-.157.01-.247.063-.315.09a5.59 5.59 0 0 1-2.262.454c-1.11 0-1.991-.278-2.171-.372A10.864 10.864 0 0 0 18.236.267C12.186.267 6.237 4.852 2.73 12.23c-4.685 9.885-3.192 21.2 3.345 25.233 1.56.973 3.327 1.468 5.206 1.468 2.445 0 5.022-.863 7.468-2.505.926-.627 3.416-2.091 6.424-2.091a9.02 9.02 0 0 1 3.849.86C31.963 37.629 36.693 39 39.84 39a9.6 9.6 0 0 0 5.112-1.446c3.236-1.994 5.34-5.768 5.93-10.635.588-4.75-.338-9.997-2.581-14.763ZM17.639 34.794c-2.104 1.42-4.298 2.174-6.357 2.174a7.817 7.817 0 0 1-4.186-1.179c-5.7-3.523-6.856-13.71-2.58-22.716C7.64 6.493 13.026 2.23 18.228 2.23c1.47 0 2.873.341 4.163 1.014.27.139.792.326 1.493.447v.07c-.247.129-7.921.992-10.138 10.392-1.834 7.676 3.35 14.552 8.938 18.484-2.374.507-4.208 1.611-5.045 2.156Zm22.178-8.412c-1.178 4.42-5.16 7.849-7.783 7.849-.453 0-.858-.102-1.2-.3.904-1.984 1.947-6.993-5.656-13.332-7.014-5.885-1.538-16.318-1.29-16.817l.045.44c.521 4.825 1.947 6.864 10.952 12.039 4.253 2.441 6.02 6.035 4.932 10.12Z"/></g><defs><clipPath id="a"><path fill="#fff" d="M0 0h137v39H0z"/></clipPath></defs></svg>